STARTFONT 2.1
COMMENT Based upon embolded version of Codec Terminal Text by Chris Cannam.
FONT -vain-qsqs-Bold-R-Normal--15-140-75-75-C-100-ISO10646-1
SIZE 14 75 75
FONTBOUNDINGBOX 7 15 0 -3
STARTPROPERTIES 18
POINT_SIZE 140
PIXEL_SIZE 15
RESOLUTION_X 75
RESOLUTION_Y 75
FONT_ASCENT 12
FONT_DESCENT 3
AVERAGE_WIDTH 100
SPACING "C"
_GBDFED_INFO "Edited with gbdfed 1.6."
CHARSET_ENCODING "1"
CHARSET_REGISTRY "ISO10646"
DEFAULT_CHAR 0
FAMILY_NAME "qsqs"
FOUNDRY "vain"
SETWIDTH_NAME "Normal"
SLANT "R"
WEIGHT_NAME "Bold"
COPYRIGHT "Public domain"
ENDPROPERTIES
CHARS 199
STARTCHAR U+0000
ENCODING 0
SWIDTH 480 0
DWIDTH 7 0
BBX 7 15 0 -3
BITMAP
00
00
00
7E
00
66
00
66
00
66
00
7E
00
00
00
ENDCHAR
STARTCHAR U+0020
ENCODING 32
SWIDTH 480 0
DWIDTH 7 0
BBX 7 15 0 -3
BITMAP
00
00
00
00
00
00
00
00
00
00
00
00
00
00
00
ENDCHAR
STARTCHAR U+0021
ENCODING 33
SWIDTH 480 0
DWIDTH 7 0
BBX 7 15 0 -3
BITMAP
00
00
18
18
18
18
18
18
00
00
18
18
00
00
00
ENDCHAR
STARTCHAR U+0022
ENCODING 34
SWIDTH 480 0
DWIDTH 7 0
BBX 7 15 0 -3
BITMAP
00
00
6C
6C
6C
00
00
00
00
00
00
00
00
00
00
ENDCHAR
STARTCHAR U+0023
ENCODING 35
SWIDTH 480 0
DWIDTH 7 0
BBX 7 15 0 -3
BITMAP
00
00
00
00
1C
1C
7E
38
38
FC
70
70
00
00
00
ENDCHAR
STARTCHAR U+0024
ENCODING 36
SWIDTH 480 0
DWIDTH 7 0
BBX 7 15 0 -3
BITMAP
00
00
00
18
3E
58
58
3C
1A
1A
7C
18
00
00
00
ENDCHAR
STARTCHAR U+0025
ENCODING 37
SWIDTH 480 0
DWIDTH 7 0
BBX 7 15 0 -3
BITMAP
00
00
00
60
F0
F6
6C
18
30
6C
DE
1E
0C
00
00
ENDCHAR
STARTCHAR U+0026
ENCODING 38
SWIDTH 480 0
DWIDTH 7 0
BBX 7 15 0 -3
BITMAP
00
00
00
18
3C
3C
18
3E
6C
6C
6C
3E
00
00
00
ENDCHAR
STARTCHAR U+0027
ENCODING 39
SWIDTH 480 0
DWIDTH 7 0
BBX 7 15 0 -3
BITMAP
00
00
0C
0C
0C
00
00
00
00
00
00
00
00
00
00
ENDCHAR
STARTCHAR U+0028
ENCODING 40
SWIDTH 480 0
DWIDTH 7 0
BBX 7 15 0 -3
BITMAP
00
00
06
0C
0C
18
18
18
18
18
0C
0C
06
00
00
ENDCHAR
STARTCHAR U+0029
ENCODING 41
SWIDTH 480 0
DWIDTH 7 0
BBX 7 15 0 -3
BITMAP
00
00
60
30
30
18
18
18
18
18
30
30
60
00
00
ENDCHAR
STARTCHAR U+002A
ENCODING 42
SWIDTH 480 0
DWIDTH 7 0
BBX 7 15 0 -3
BITMAP
00
00
18
7E
3C
7E
18
00
00
00
00
00
00
00
00
ENDCHAR
STARTCHAR U+002B
ENCODING 43
SWIDTH 480 0
DWIDTH 7 0
BBX 7 15 0 -3
BITMAP
00
00
00
00
00
18
18
7E
18
18
00
00
00
00
00
ENDCHAR
STARTCHAR U+002C
ENCODING 44
SWIDTH 480 0
DWIDTH 7 0
BBX 7 15 0 -3
BITMAP
00
00
00
00
00
00
00
00
00
30
30
10
10
20
00
ENDCHAR
STARTCHAR U+002D
ENCODING 45
SWIDTH 480 0
DWIDTH 7 0
BBX 7 15 0 -3
BITMAP
00
00
00
00
00
00
00
7E
00
00
00
00
00
00
00
ENDCHAR
STARTCHAR U+002E
ENCODING 46
SWIDTH 480 0
DWIDTH 7 0
BBX 7 15 0 -3
BITMAP
00
00
00
00
00
00
00
00
00
00
38
38
00
00
00
ENDCHAR
STARTCHAR U+002F
ENCODING 47
SWIDTH 480 0
DWIDTH 7 0
BBX 7 15 0 -3
BITMAP
00
00
00
06
06
0C
0C
18
30
30
60
60
00
00
00
ENDCHAR
STARTCHAR U+0030
ENCODING 48
SWIDTH 480 0
DWIDTH 7 0
BBX 7 15 0 -3
BITMAP
00
00
00
3C
66
66
6E
7E
76
66
66
3C
00
00
00
ENDCHAR
STARTCHAR U+0031
ENCODING 49
SWIDTH 480 0
DWIDTH 7 0
BBX 7 15 0 -3
BITMAP
00
00
00
18
38
78
18
18
18
18
18
7E
00
00
00
ENDCHAR
STARTCHAR U+0032
ENCODING 50
SWIDTH 480 0
DWIDTH 7 0
BBX 7 15 0 -3
BITMAP
00
00
00
3C
66
06
06
0C
18
30
60
7E
00
00
00
ENDCHAR
STARTCHAR U+0033
ENCODING 51
SWIDTH 480 0
DWIDTH 7 0
BBX 7 15 0 -3
BITMAP
00
00
00
3C
66
06
06
3C
06
06
66
3C
00
00
00
ENDCHAR
STARTCHAR U+0034
ENCODING 52
SWIDTH 480 0
DWIDTH 7 0
BBX 7 15 0 -3
BITMAP
00
00
00
0C
1C
3C
3C
6C
6C
FE
0C
0C
00
00
00
ENDCHAR
STARTCHAR U+0035
ENCODING 53
SWIDTH 480 0
DWIDTH 7 0
BBX 7 15 0 -3
BITMAP
00
00
00
7E
60
60
60
7C
06
06
66
3C
00
00
00
ENDCHAR
STARTCHAR U+0036
ENCODING 54
SWIDTH 480 0
DWIDTH 7 0
BBX 7 15 0 -3
BITMAP
00
00
00
3C
66
60
60
7C
66
66
66
3C
00
00
00
ENDCHAR
STARTCHAR U+0037
ENCODING 55
SWIDTH 480 0
DWIDTH 7 0
BBX 7 15 0 -3
BITMAP
00
00
00
7E
0C
0C
18
18
18
30
30
30
00
00
00
ENDCHAR
STARTCHAR U+0038
ENCODING 56
SWIDTH 480 0
DWIDTH 7 0
BBX 7 15 0 -3
BITMAP
00
00
00
3C
66
66
66
3C
66
66
66
3C
00
00
00
ENDCHAR
STARTCHAR U+0039
ENCODING 57
SWIDTH 480 0
DWIDTH 7 0
BBX 7 15 0 -3
BITMAP
00
00
00
3C
66
66
66
3E
06
06
66
3C
00
00
00
ENDCHAR
STARTCHAR U+003A
ENCODING 58
SWIDTH 480 0
DWIDTH 7 0
BBX 7 15 0 -3
BITMAP
00
00
00
00
00
38
38
00
00
38
38
00
00
00
00
ENDCHAR
STARTCHAR U+003B
ENCODING 59
SWIDTH 480 0
DWIDTH 7 0
BBX 7 15 0 -3
BITMAP
00
00
00
00
00
38
38
00
00
38
38
08
08
10
00
ENDCHAR
STARTCHAR U+003C
ENCODING 60
SWIDTH 480 0
DWIDTH 7 0
BBX 7 15 0 -3
BITMAP
00
00
00
06
0C
18
30
60
30
18
0C
06
00
00
00
ENDCHAR
STARTCHAR U+003D
ENCODING 61
SWIDTH 480 0
DWIDTH 7 0
BBX 7 15 0 -3
BITMAP
00
00
00
00
00
00
7E
00
00
7E
00
00
00
00
00
ENDCHAR
STARTCHAR U+003E
ENCODING 62
SWIDTH 480 0
DWIDTH 7 0
BBX 7 15 0 -3
BITMAP
00
00
00
60
30
18
0C
06
0C
18
30
60
00
00
00
ENDCHAR
STARTCHAR U+003F
ENCODING 63
SWIDTH 480 0
DWIDTH 7 0
BBX 7 15 0 -3
BITMAP
00
00
00
7C
06
06
06
3C
30
00
30
30
00
00
00
ENDCHAR
STARTCHAR U+0040
ENCODING 64
SWIDTH 480 0
DWIDTH 7 0
BBX 7 15 0 -3
BITMAP
00
00
00
1C
36
6E
6E
6E
6E
6E
30
1E
00
00
00
ENDCHAR
STARTCHAR U+0041
ENCODING 65
SWIDTH 480 0
DWIDTH 7 0
BBX 7 15 0 -3
BITMAP
00
00
00
18
3C
3C
66
66
66
7E
66
66
00
00
00
ENDCHAR
STARTCHAR U+0042
ENCODING 66
SWIDTH 480 0
DWIDTH 7 0
BBX 7 15 0 -3
BITMAP
00
00
00
7C
66
66
66
7C
66
66
66
7C
00
00
00
ENDCHAR
STARTCHAR U+0043
ENCODING 67
SWIDTH 480 0
DWIDTH 7 0
BBX 7 15 0 -3
BITMAP
00
00
00
3C
66
60
60
60
60
60
66
3C
00
00
00
ENDCHAR
STARTCHAR U+0044
ENCODING 68
SWIDTH 480 0
DWIDTH 7 0
BBX 7 15 0 -3
BITMAP
00
00
00
78
6C
66
66
66
66
66
6C
78
00
00
00
ENDCHAR
STARTCHAR U+0045
ENCODING 69
SWIDTH 480 0
DWIDTH 7 0
BBX 7 15 0 -3
BITMAP
00
00
00
7E
60
60
60
7C
60
60
60
7E
00
00
00
ENDCHAR
STARTCHAR U+0046
ENCODING 70
SWIDTH 480 0
DWIDTH 7 0
BBX 7 15 0 -3
BITMAP
00
00
00
7E
60
60
60
7C
60
60
60
60
00
00
00
ENDCHAR
STARTCHAR U+0047
ENCODING 71
SWIDTH 480 0
DWIDTH 7 0
BBX 7 15 0 -3
BITMAP
00
00
00
3C
66
60
60
6E
66
66
66
3E
00
00
00
ENDCHAR
STARTCHAR U+0048
ENCODING 72
SWIDTH 480 0
DWIDTH 7 0
BBX 7 15 0 -3
BITMAP
00
00
00
66
66
66
66
7E
66
66
66
66
00
00
00
ENDCHAR
STARTCHAR U+0049
ENCODING 73
SWIDTH 480 0
DWIDTH 7 0
BBX 7 15 0 -3
BITMAP
00
00
00
3C
18
18
18
18
18
18
18
3C
00
00
00
ENDCHAR
STARTCHAR U+004A
ENCODING 74
SWIDTH 480 0
DWIDTH 7 0
BBX 7 15 0 -3
BITMAP
00
00
00
3C
18
18
18
18
18
18
18
18
18
70
00
ENDCHAR
STARTCHAR U+004B
ENCODING 75
SWIDTH 480 0
DWIDTH 7 0
BBX 7 15 0 -3
BITMAP
00
00
00
66
66
6C
6C
78
6C
6C
66
66
00
00
00
ENDCHAR
STARTCHAR U+004C
ENCODING 76
SWIDTH 480 0
DWIDTH 7 0
BBX 7 15 0 -3
BITMAP
00
00
00
60
60
60
60
60
60
60
60
7E
00
00
00
ENDCHAR
STARTCHAR U+004D
ENCODING 77
SWIDTH 480 0
DWIDTH 7 0
BBX 7 15 0 -3
BITMAP
00
00
00
66
66
7E
7E
7E
7E
66
66
66
00
00
00
ENDCHAR
STARTCHAR U+004E
ENCODING 78
SWIDTH 480 0
DWIDTH 7 0
BBX 7 15 0 -3
BITMAP
00
00
00
66
76
76
7E
6E
6E
66
66
66
00
00
00
ENDCHAR
STARTCHAR U+004F
ENCODING 79
SWIDTH 480 0
DWIDTH 7 0
BBX 7 15 0 -3
BITMAP
00
00
00
3C
66
66
66
66
66
66
66
3C
00
00
00
ENDCHAR
STARTCHAR U+0050
ENCODING 80
SWIDTH 480 0
DWIDTH 7 0
BBX 7 15 0 -3
BITMAP
00
00
00
7C
66
66
66
66
7C
60
60
60
00
00
00
ENDCHAR
STARTCHAR U+0051
ENCODING 81
SWIDTH 480 0
DWIDTH 7 0
BBX 7 15 0 -3
BITMAP
00
00
00
3C
66
66
66
66
66
66
7E
3C
0E
00
00
ENDCHAR
STARTCHAR U+0052
ENCODING 82
SWIDTH 480 0
DWIDTH 7 0
BBX 7 15 0 -3
BITMAP
00
00
00
7C
66
66
66
7C
6C
6C
66
66
00
00
00
ENDCHAR
STARTCHAR U+0053
ENCODING 83
SWIDTH 480 0
DWIDTH 7 0
BBX 7 15 0 -3
BITMAP
00
00
00
3E
60
60
60
3C
06
06
06
7C
00
00
00
ENDCHAR
STARTCHAR U+0054
ENCODING 84
SWIDTH 480 0
DWIDTH 7 0
BBX 7 15 0 -3
BITMAP
00
00
00
7E
18
18
18
18
18
18
18
18
00
00
00
ENDCHAR
STARTCHAR U+0055
ENCODING 85
SWIDTH 480 0
DWIDTH 7 0
BBX 7 15 0 -3
BITMAP
00
00
00
66
66
66
66
66
66
66
66
3C
00
00
00
ENDCHAR
STARTCHAR U+0056
ENCODING 86
SWIDTH 480 0
DWIDTH 7 0
BBX 7 15 0 -3
BITMAP
00
00
00
66
66
66
66
3C
3C
3C
18
18
00
00
00
ENDCHAR
STARTCHAR U+0057
ENCODING 87
SWIDTH 480 0
DWIDTH 7 0
BBX 7 15 0 -3
BITMAP
00
00
00
66
66
66
7E
7E
7E
3C
3C
3C
00
00
00
ENDCHAR
STARTCHAR U+0058
ENCODING 88
SWIDTH 480 0
DWIDTH 7 0
BBX 7 15 0 -3
BITMAP
00
00
00
66
66
3C
3C
18
3C
3C
66
66
00
00
00
ENDCHAR
STARTCHAR U+0059
ENCODING 89
SWIDTH 480 0
DWIDTH 7 0
BBX 7 15 0 -3
BITMAP
00
00
00
66
66
66
3C
3C
18
18
18
18
00
00
00
ENDCHAR
STARTCHAR U+005A
ENCODING 90
SWIDTH 480 0
DWIDTH 7 0
BBX 7 15 0 -3
BITMAP
00
00
00
7E
06
0C
0C
18
30
30
60
7E
00
00
00
ENDCHAR
STARTCHAR U+005B
ENCODING 91
SWIDTH 480 0
DWIDTH 7 0
BBX 7 15 0 -3
BITMAP
00
00
1E
18
18
18
18
18
18
18
18
18
1E
00
00
ENDCHAR
STARTCHAR U+005C
ENCODING 92
SWIDTH 480 0
DWIDTH 7 0
BBX 7 15 0 -3
BITMAP
00
00
00
60
60
30
30
18
0C
0C
06
06
00
00
00
ENDCHAR
STARTCHAR U+005D
ENCODING 93
SWIDTH 480 0
DWIDTH 7 0
BBX 7 15 0 -3
BITMAP
00
00
78
18
18
18
18
18
18
18
18
18
78
00
00
ENDCHAR
STARTCHAR U+005E
ENCODING 94
SWIDTH 480 0
DWIDTH 7 0
BBX 7 15 0 -3
BITMAP
00
00
18
3C
66
00
00
00
00
00
00
00
00
00
00
ENDCHAR
STARTCHAR U+005F
ENCODING 95
SWIDTH 480 0
DWIDTH 7 0
BBX 7 15 0 -3
BITMAP
00
00
00
00
00
00
00
00
00
00
00
00
7E
00
00
ENDCHAR
STARTCHAR U+0060
ENCODING 96
SWIDTH 480 0
DWIDTH 7 0
BBX 7 15 0 -3
BITMAP
00
00
00
30
18
00
00
00
00
00
00
00
00
00
00
ENDCHAR
STARTCHAR U+0061
ENCODING 97
SWIDTH 480 0
DWIDTH 7 0
BBX 7 15 0 -3
BITMAP
00
00
00
00
00
3C
66
06
3E
66
66
3E
00
00
00
ENDCHAR
STARTCHAR U+0062
ENCODING 98
SWIDTH 480 0
DWIDTH 7 0
BBX 7 15 0 -3
BITMAP
00
00
60
60
60
7C
66
66
66
66
66
7C
00
00
00
ENDCHAR
STARTCHAR U+0063
ENCODING 99
SWIDTH 480 0
DWIDTH 7 0
BBX 7 15 0 -3
BITMAP
00
00
00
00
00
3C
66
60
60
60
66
3C
00
00
00
ENDCHAR
STARTCHAR U+0064
ENCODING 100
SWIDTH 480 0
DWIDTH 7 0
BBX 7 15 0 -3
BITMAP
00
00
06
06
06
3E
66
66
66
66
66
3E
00
00
00
ENDCHAR
STARTCHAR U+0065
ENCODING 101
SWIDTH 480 0
DWIDTH 7 0
BBX 7 15 0 -3
BITMAP
00
00
00
00
00
3C
66
66
7E
60
66
3C
00
00
00
ENDCHAR
STARTCHAR U+0066
ENCODING 102
SWIDTH 480 0
DWIDTH 7 0
BBX 7 15 0 -3
BITMAP
00
00
0E
18
18
3E
18
18
18
18
18
18
18
18
18
ENDCHAR
STARTCHAR U+0067
ENCODING 103
SWIDTH 480 0
DWIDTH 7 0
BBX 7 15 0 -3
BITMAP
00
00
00
00
00
3E
66
66
66
3C
30
3C
66
66
3C
ENDCHAR
STARTCHAR U+0068
ENCODING 104
SWIDTH 480 0
DWIDTH 7 0
BBX 7 15 0 -3
BITMAP
00
00
60
60
60
7C
76
66
66
66
66
66
00
00
00
ENDCHAR
STARTCHAR U+0069
ENCODING 105
SWIDTH 480 0
DWIDTH 7 0
BBX 7 15 0 -3
BITMAP
00
00
18
18
00
38
18
18
18
18
18
3C
00
00
00
ENDCHAR
STARTCHAR U+006A
ENCODING 106
SWIDTH 480 0
DWIDTH 7 0
BBX 7 15 0 -3
BITMAP
00
00
18
18
00
38
18
18
18
18
18
18
18
18
70
ENDCHAR
STARTCHAR U+006B
ENCODING 107
SWIDTH 480 0
DWIDTH 7 0
BBX 7 15 0 -3
BITMAP
00
00
60
60
60
66
6C
78
78
6C
66
66
00
00
00
ENDCHAR
STARTCHAR U+006C
ENCODING 108
SWIDTH 480 0
DWIDTH 7 0
BBX 7 15 0 -3
BITMAP
00
00
38
18
18
18
18
18
18
18
18
0E
00
00
00
ENDCHAR
STARTCHAR U+006D
ENCODING 109
SWIDTH 480 0
DWIDTH 7 0
BBX 7 15 0 -3
BITMAP
00
00
00
00
00
7C
7E
7E
7E
6A
6A
62
00
00
00
ENDCHAR
STARTCHAR U+006E
ENCODING 110
SWIDTH 480 0
DWIDTH 7 0
BBX 7 15 0 -3
BITMAP
00
00
00
00
00
7C
66
66
66
66
66
66
00
00
00
ENDCHAR
STARTCHAR U+006F
ENCODING 111
SWIDTH 480 0
DWIDTH 7 0
BBX 7 15 0 -3
BITMAP
00
00
00
00
00
3C
66
66
66
66
66
3C
00
00
00
ENDCHAR
STARTCHAR U+0070
ENCODING 112
SWIDTH 480 0
DWIDTH 7 0
BBX 7 15 0 -3
BITMAP
00
00
00
00
00
7C
66
66
66
66
66
7C
60
60
60
ENDCHAR
STARTCHAR U+0071
ENCODING 113
SWIDTH 480 0
DWIDTH 7 0
BBX 7 15 0 -3
BITMAP
00
00
00
00
00
3E
66
66
66
66
66
3E
06
06
06
ENDCHAR
STARTCHAR U+0072
ENCODING 114
SWIDTH 480 0
DWIDTH 7 0
BBX 7 15 0 -3
BITMAP
00
00
00
00
00
7E
38
30
30
30
30
30
00
00
00
ENDCHAR
STARTCHAR U+0073
ENCODING 115
SWIDTH 480 0
DWIDTH 7 0
BBX 7 15 0 -3
BITMAP
00
00
00
00
00
3E
60
60
3C
06
06
7C
00
00
00
ENDCHAR
STARTCHAR U+0074
ENCODING 116
SWIDTH 480 0
DWIDTH 7 0
BBX 7 15 0 -3
BITMAP
00
00
00
18
18
3E
18
18
18
18
18
0E
00
00
00
ENDCHAR
STARTCHAR U+0075
ENCODING 117
SWIDTH 480 0
DWIDTH 7 0
BBX 7 15 0 -3
BITMAP
00
00
00
00
00
66
66
66
66
66
66
3E
00
00
00
ENDCHAR
STARTCHAR U+0076
ENCODING 118
SWIDTH 480 0
DWIDTH 7 0
BBX 7 15 0 -3
BITMAP
00
00
00
00
00
66
66
66
3C
3C
18
18
00
00
00
ENDCHAR
STARTCHAR U+0077
ENCODING 119
SWIDTH 480 0
DWIDTH 7 0
BBX 7 15 0 -3
BITMAP
00
00
00
00
00
66
66
7E
7E
3C
3C
3C
00
00
00
ENDCHAR
STARTCHAR U+0078
ENCODING 120
SWIDTH 480 0
DWIDTH 7 0
BBX 7 15 0 -3
BITMAP
00
00
00
00
00
66
66
3C
18
3C
66
66
00
00
00
ENDCHAR
STARTCHAR U+0079
ENCODING 121
SWIDTH 480 0
DWIDTH 7 0
BBX 7 15 0 -3
BITMAP
00
00
00
00
00
66
66
66
66
3C
3C
18
18
18
70
ENDCHAR
STARTCHAR U+007A
ENCODING 122
SWIDTH 480 0
DWIDTH 7 0
BBX 7 15 0 -3
BITMAP
00
00
00
00
00
7E
0C
0C
18
30
30
7E
00
00
00
ENDCHAR
STARTCHAR U+007B
ENCODING 123
SWIDTH 480 0
DWIDTH 7 0
BBX 7 15 0 -3
BITMAP
00
00
0E
18
18
18
18
70
18
18
18
18
0E
00
00
ENDCHAR
STARTCHAR U+007C
ENCODING 124
SWIDTH 480 0
DWIDTH 7 0
BBX 7 15 0 -3
BITMAP
00
00
18
18
18
18
18
18
18
18
18
18
00
00
00
ENDCHAR
STARTCHAR U+007D
ENCODING 125
SWIDTH 480 0
DWIDTH 7 0
BBX 7 15 0 -3
BITMAP
00
00
70
18
18
18
18
0E
18
18
18
18
70
00
00
ENDCHAR
STARTCHAR U+007E
ENCODING 126
SWIDTH 480 0
DWIDTH 7 0
BBX 7 15 0 -3
BITMAP
00
00
36
7E
6C
00
00
00
00
00
00
00
00
00
00
ENDCHAR
STARTCHAR U+00A0
ENCODING 160
SWIDTH 480 0
DWIDTH 7 0
BBX 7 15 0 -3
BITMAP
00
00
00
00
00
00
00
00
00
00
00
00
00
00
00
ENDCHAR
STARTCHAR U+00A1
ENCODING 161
SWIDTH 480 0
DWIDTH 7 0
BBX 7 15 0 -3
BITMAP
00
00
00
18
18
00
00
18
18
18
18
18
00
00
00
ENDCHAR
STARTCHAR U+00A2
ENCODING 162
SWIDTH 480 0
DWIDTH 7 0
BBX 7 15 0 -3
BITMAP
00
00
00
00
00
18
3E
78
78
78
3E
18
00
00
00
ENDCHAR
STARTCHAR U+00A3
ENCODING 163
SWIDTH 480 0
DWIDTH 7 0
BBX 7 15 0 -3
BITMAP
00
00
00
00
1E
30
30
30
7C
30
30
7E
00
00
00
ENDCHAR
STARTCHAR U+00A4
ENCODING 164
SWIDTH 480 0
DWIDTH 7 0
BBX 7 15 0 -3
BITMAP
00
00
00
00
00
00
C6
7C
6C
6C
7C
C6
00
00
00
ENDCHAR
STARTCHAR U+00A5
ENCODING 165
SWIDTH 480 0
DWIDTH 7 0
BBX 7 15 0 -3
BITMAP
00
00
00
66
66
66
3C
7E
18
7E
18
18
00
00
00
ENDCHAR
STARTCHAR U+00A6
ENCODING 166
SWIDTH 480 0
DWIDTH 7 0
BBX 7 15 0 -3
BITMAP
00
00
00
18
18
18
18
00
18
18
18
18
00
00
00
ENDCHAR
STARTCHAR U+00A7
ENCODING 167
SWIDTH 480 0
DWIDTH 7 0
BBX 7 15 0 -3
BITMAP
00
00
00
38
6C
60
38
6C
6C
38
0C
6C
38
00
00
ENDCHAR
STARTCHAR U+00A8
ENCODING 168
SWIDTH 480 0
DWIDTH 7 0
BBX 7 15 0 -3
BITMAP
66
66
00
00
00
00
00
00
00
00
00
00
00
00
00
ENDCHAR
STARTCHAR U+00A9
ENCODING 169
SWIDTH 480 0
DWIDTH 7 0
BBX 7 15 0 -3
BITMAP
00
00
7C
FE
C6
9A
A2
A2
9A
C6
FE
7C
00
00
00
ENDCHAR
STARTCHAR U+00AA
ENCODING 170
SWIDTH 480 0
DWIDTH 7 0
BBX 7 15 0 -3
BITMAP
00
00
00
38
0C
3C
6C
3C
00
00
00
00
00
00
00
ENDCHAR
STARTCHAR U+00AB
ENCODING 171
SWIDTH 480 0
DWIDTH 7 0
BBX 7 15 0 -3
BITMAP
00
00
00
00
00
36
6C
D8
6C
36
00
00
00
00
00
ENDCHAR
STARTCHAR U+00AC
ENCODING 172
SWIDTH 480 0
DWIDTH 7 0
BBX 7 15 0 -3
BITMAP
00
00
00
00
00
00
00
00
7E
06
06
00
00
00
00
ENDCHAR
STARTCHAR U+00AD
ENCODING 173
SWIDTH 480 0
DWIDTH 7 0
BBX 7 15 0 -3
BITMAP
00
00
00
00
00
00
00
00
3C
00
00
00
00
00
00
ENDCHAR
STARTCHAR U+00AE
ENCODING 174
SWIDTH 480 0
DWIDTH 7 0
BBX 7 15 0 -3
BITMAP
00
00
7C
FE
C6
BA
AA
B2
AA
C6
FE
7C
00
00
00
ENDCHAR
STARTCHAR U+00AF
ENCODING 175
SWIDTH 480 0
DWIDTH 7 0
BBX 7 15 0 -3
BITMAP
00
00
00
7C
00
00
00
00
00
00
00
00
00
00
00
ENDCHAR
STARTCHAR U+00B0
ENCODING 176
SWIDTH 480 0
DWIDTH 7 0
BBX 7 15 0 -3
BITMAP
00
00
38
6C
6C
38
00
00
00
00
00
00
00
00
00
ENDCHAR
STARTCHAR U+00B1
ENCODING 177
SWIDTH 480 0
DWIDTH 7 0
BBX 7 15 0 -3
BITMAP
00
00
00
00
00
18
18
7E
18
18
00
7E
00
00
00
ENDCHAR
STARTCHAR U+00B2
ENCODING 178
SWIDTH 480 0
DWIDTH 7 0
BBX 7 15 0 -3
BITMAP
00
00
00
38
6C
0C
38
60
7C
00
00
00
00
00
00
ENDCHAR
STARTCHAR U+00B3
ENCODING 179
SWIDTH 480 0
DWIDTH 7 0
BBX 7 15 0 -3
BITMAP
00
00
00
7C
18
38
0C
0C
78
00
00
00
00
00
00
ENDCHAR
STARTCHAR U+00B4
ENCODING 180
SWIDTH 480 0
DWIDTH 7 0
BBX 7 15 0 -3
BITMAP
00
00
00
18
30
00
00
00
00
00
00
00
00
00
00
ENDCHAR
STARTCHAR U+00B5
ENCODING 181
SWIDTH 480 0
DWIDTH 7 0
BBX 7 15 0 -3
BITMAP
00
00
00
00
00
66
66
66
66
66
7E
7E
60
60
60
ENDCHAR
STARTCHAR U+00B6
ENCODING 182
SWIDTH 480 0
DWIDTH 7 0
BBX 7 15 0 -3
BITMAP
00
00
00
3E
7A
7A
7A
3A
1A
1A
1A
1A
00
00
00
ENDCHAR
STARTCHAR U+00B7
ENCODING 183
SWIDTH 480 0
DWIDTH 7 0
BBX 7 15 0 -3
BITMAP
00
00
00
00
00
00
00
38
38
00
00
00
00
00
00
ENDCHAR
STARTCHAR U+00B8
ENCODING 184
SWIDTH 480 0
DWIDTH 7 0
BBX 7 15 0 -3
BITMAP
00
00
00
00
00
00
00
00
00
00
00
00
18
70
00
ENDCHAR
STARTCHAR U+00B9
ENCODING 185
SWIDTH 480 0
DWIDTH 7 0
BBX 7 15 0 -3
BITMAP
00
00
00
18
38
78
18
18
18
00
00
00
00
00
00
ENDCHAR
STARTCHAR U+00BA
ENCODING 186
SWIDTH 480 0
DWIDTH 7 0
BBX 7 15 0 -3
BITMAP
00
00
00
38
6C
6C
6C
6C
38
00
00
00
00
00
00
ENDCHAR
STARTCHAR U+00BB
ENCODING 187
SWIDTH 480 0
DWIDTH 7 0
BBX 7 15 0 -3
BITMAP
00
00
00
00
00
D8
6C
36
6C
D8
00
00
00
00
00
ENDCHAR
STARTCHAR U+00BC
ENCODING 188
SWIDTH 480 0
DWIDTH 7 0
BBX 7 15 0 -3
BITMAP
00
00
00
30
70
30
3E
38
EC
1C
3C
3E
0C
00
00
ENDCHAR
STARTCHAR U+00BD
ENCODING 189
SWIDTH 480 0
DWIDTH 7 0
BBX 7 15 0 -3
BITMAP
00
00
00
30
70
30
3E
38
FC
06
1C
30
3E
00
00
ENDCHAR
STARTCHAR U+00BE
ENCODING 190
SWIDTH 480 0
DWIDTH 7 0
BBX 7 15 0 -3
BITMAP
00
00
F8
30
78
18
FE
38
EC
1C
3C
3E
0C
00
00
ENDCHAR
STARTCHAR U+00BF
ENCODING 191
SWIDTH 480 0
DWIDTH 7 0
BBX 7 15 0 -3
BITMAP
00
00
00
0C
0C
00
0C
3C
60
60
60
3E
00
00
00
ENDCHAR
STARTCHAR U+00C0
ENCODING 192
SWIDTH 480 0
DWIDTH 7 0
BBX 7 15 0 -3
BITMAP
30
18
00
18
3C
3C
66
66
66
7E
66
66
00
00
00
ENDCHAR
STARTCHAR U+00C1
ENCODING 193
SWIDTH 480 0
DWIDTH 7 0
BBX 7 15 0 -3
BITMAP
0C
18
00
18
3C
3C
66
66
66
7E
66
66
00
00
00
ENDCHAR
STARTCHAR U+00C2
ENCODING 194
SWIDTH 480 0
DWIDTH 7 0
BBX 7 15 0 -3
BITMAP
18
3C
00
18
3C
3C
66
66
66
7E
66
66
00
00
00
ENDCHAR
STARTCHAR U+00C3
ENCODING 195
SWIDTH 480 0
DWIDTH 7 0
BBX 7 15 0 -3
BITMAP
1E
3C
00
18
3C
3C
66
66
66
7E
66
66
00
00
00
ENDCHAR
STARTCHAR U+00C4
ENCODING 196
SWIDTH 480 0
DWIDTH 7 0
BBX 7 15 0 -3
BITMAP
66
66
00
18
3C
3C
66
66
66
7E
66
66
00
00
00
ENDCHAR
STARTCHAR U+00C5
ENCODING 197
SWIDTH 480 0
DWIDTH 7 0
BBX 7 15 0 -3
BITMAP
18
18
00
18
3C
3C
66
66
66
7E
66
66
00
00
00
ENDCHAR
STARTCHAR U+00C6
ENCODING 198
SWIDTH 480 0
DWIDTH 7 0
BBX 7 15 0 -3
BITMAP
00
00
00
1E
38
78
78
7E
78
78
78
7E
00
00
00
ENDCHAR
STARTCHAR U+00C7
ENCODING 199
SWIDTH 480 0
DWIDTH 7 0
BBX 7 15 0 -3
BITMAP
00
00
00
3C
66
60
60
60
60
60
66
3C
18
18
30
ENDCHAR
STARTCHAR U+00C8
ENCODING 200
SWIDTH 480 0
DWIDTH 7 0
BBX 7 15 0 -3
BITMAP
30
18
00
7E
60
60
60
7C
60
60
60
7E
00
00
00
ENDCHAR
STARTCHAR U+00C9
ENCODING 201
SWIDTH 480 0
DWIDTH 7 0
BBX 7 15 0 -3
BITMAP
0C
18
00
7E
60
60
60
7C
60
60
60
7E
00
00
00
ENDCHAR
STARTCHAR U+00CA
ENCODING 202
SWIDTH 480 0
DWIDTH 7 0
BBX 7 15 0 -3
BITMAP
18
3C
00
7E
60
60
60
7C
60
60
60
7E
00
00
00
ENDCHAR
STARTCHAR U+00CB
ENCODING 203
SWIDTH 480 0
DWIDTH 7 0
BBX 7 15 0 -3
BITMAP
66
66
00
7E
60
60
60
7C
60
60
60
7E
00
00
00
ENDCHAR
STARTCHAR U+00CC
ENCODING 204
SWIDTH 480 0
DWIDTH 7 0
BBX 7 15 0 -3
BITMAP
30
18
00
3C
18
18
18
18
18
18
18
3C
00
00
00
ENDCHAR
STARTCHAR U+00CD
ENCODING 205
SWIDTH 480 0
DWIDTH 7 0
BBX 7 15 0 -3
BITMAP
0C
18
00
3C
18
18
18
18
18
18
18
3C
00
00
00
ENDCHAR
STARTCHAR U+00CE
ENCODING 206
SWIDTH 480 0
DWIDTH 7 0
BBX 7 15 0 -3
BITMAP
18
3C
00
3C
18
18
18
18
18
18
18
3C
00
00
00
ENDCHAR
STARTCHAR U+00CF
ENCODING 207
SWIDTH 480 0
DWIDTH 7 0
BBX 7 15 0 -3
BITMAP
66
66
00
3C
18
18
18
18
18
18
18
3C
00
00
00
ENDCHAR
STARTCHAR U+00D0
ENCODING 208
SWIDTH 480 0
DWIDTH 7 0
BBX 7 15 0 -3
BITMAP
00
00
00
38
3C
36
36
7E
36
36
3C
38
00
00
00
ENDCHAR
STARTCHAR U+00D1
ENCODING 209
SWIDTH 480 0
DWIDTH 7 0
BBX 7 15 0 -3
BITMAP
1E
3C
00
66
76
76
7E
6E
6E
66
66
66
00
00
00
ENDCHAR
STARTCHAR U+00D2
ENCODING 210
SWIDTH 480 0
DWIDTH 7 0
BBX 7 15 0 -3
BITMAP
30
18
00
3C
66
66
66
66
66
66
66
3C
00
00
00
ENDCHAR
STARTCHAR U+00D3
ENCODING 211
SWIDTH 480 0
DWIDTH 7 0
BBX 7 15 0 -3
BITMAP
0C
18
00
3C
66
66
66
66
66
66
66
3C
00
00
00
ENDCHAR
STARTCHAR U+00D4
ENCODING 212
SWIDTH 480 0
DWIDTH 7 0
BBX 7 15 0 -3
BITMAP
18
3C
00
3C
66
66
66
66
66
66
66
3C
00
00
00
ENDCHAR
STARTCHAR U+00D5
ENCODING 213
SWIDTH 480 0
DWIDTH 7 0
BBX 7 15 0 -3
BITMAP
1E
3C
00
3C
66
66
66
66
66
66
66
3C
00
00
00
ENDCHAR
STARTCHAR U+00D6
ENCODING 214
SWIDTH 480 0
DWIDTH 7 0
BBX 7 15 0 -3
BITMAP
66
66
00
3C
66
66
66
66
66
66
66
3C
00
00
00
ENDCHAR
STARTCHAR U+00D7
ENCODING 215
SWIDTH 480 0
DWIDTH 7 0
BBX 7 15 0 -3
BITMAP
00
00
00
00
00
00
66
3C
18
3C
66
00
00
00
00
ENDCHAR
STARTCHAR U+00D8
ENCODING 216
SWIDTH 480 0
DWIDTH 7 0
BBX 7 15 0 -3
BITMAP
00
00
00
3E
66
6E
6E
7E
76
76
66
7C
00
00
00
ENDCHAR
STARTCHAR U+00D9
ENCODING 217
SWIDTH 480 0
DWIDTH 7 0
BBX 7 15 0 -3
BITMAP
30
18
00
66
66
66
66
66
66
66
66
3C
00
00
00
ENDCHAR
STARTCHAR U+00DA
ENCODING 218
SWIDTH 480 0
DWIDTH 7 0
BBX 7 15 0 -3
BITMAP
0C
18
00
66
66
66
66
66
66
66
66
3C
00
00
00
ENDCHAR
STARTCHAR U+00DB
ENCODING 219
SWIDTH 480 0
DWIDTH 7 0
BBX 7 15 0 -3
BITMAP
18
3C
00
66
66
66
66
66
66
66
66
3C
00
00
00
ENDCHAR
STARTCHAR U+00DC
ENCODING 220
SWIDTH 480 0
DWIDTH 7 0
BBX 7 15 0 -3
BITMAP
66
66
00
66
66
66
66
66
66
66
66
3C
00
00
00
ENDCHAR
STARTCHAR U+00DD
ENCODING 221
SWIDTH 480 0
DWIDTH 7 0
BBX 7 15 0 -3
BITMAP
0C
18
00
66
66
66
3C
3C
18
18
18
18
00
00
00
ENDCHAR
STARTCHAR U+00DE
ENCODING 222
SWIDTH 480 0
DWIDTH 7 0
BBX 7 15 0 -3
BITMAP
00
00
00
60
60
7C
66
66
66
7C
60
60
00
00
00
ENDCHAR
STARTCHAR U+00DF
ENCODING 223
SWIDTH 480 0
DWIDTH 7 0
BBX 7 15 0 -3
BITMAP
00
00
00
38
6C
6C
78
78
6C
66
66
7C
00
00
00
ENDCHAR
STARTCHAR U+00E0
ENCODING 224
SWIDTH 480 0
DWIDTH 7 0
BBX 7 15 0 -3
BITMAP
00
00
18
0C
00
3C
66
06
3E
66
66
3E
00
00
00
ENDCHAR
STARTCHAR U+00E1
ENCODING 225
SWIDTH 480 0
DWIDTH 7 0
BBX 7 15 0 -3
BITMAP
00
00
0C
18
00
3C
66
06
3E
66
66
3E
00
00
00
ENDCHAR
STARTCHAR U+00E2
ENCODING 226
SWIDTH 480 0
DWIDTH 7 0
BBX 7 15 0 -3
BITMAP
00
00
18
3C
00
3C
66
06
3E
66
66
3E
00
00
00
ENDCHAR
STARTCHAR U+00E3
ENCODING 227
SWIDTH 480 0
DWIDTH 7 0
BBX 7 15 0 -3
BITMAP
00
00
3E
7C
00
3C
66
06
3E
66
66
3E
00
00
00
ENDCHAR
STARTCHAR U+00E4
ENCODING 228
SWIDTH 480 0
DWIDTH 7 0
BBX 7 15 0 -3
BITMAP
00
00
66
66
00
3C
66
06
3E
66
66
3E
00
00
00
ENDCHAR
STARTCHAR U+00E5
ENCODING 229
SWIDTH 480 0
DWIDTH 7 0
BBX 7 15 0 -3
BITMAP
00
00
18
3C
18
00
3C
66
3E
66
66
3E
00
00
00
ENDCHAR
STARTCHAR U+00E6
ENCODING 230
SWIDTH 480 0
DWIDTH 7 0
BBX 7 15 0 -3
BITMAP
00
00
00
00
00
3C
7E
1A
3E
78
5E
7C
00
00
00
ENDCHAR
STARTCHAR U+00E7
ENCODING 231
SWIDTH 480 0
DWIDTH 7 0
BBX 7 15 0 -3
BITMAP
00
00
00
00
00
3C
66
60
60
60
66
3C
18
18
30
ENDCHAR
STARTCHAR U+00E8
ENCODING 232
SWIDTH 480 0
DWIDTH 7 0
BBX 7 15 0 -3
BITMAP
00
00
30
18
00
3C
66
66
7E
60
66
3C
00
00
00
ENDCHAR
STARTCHAR U+00E9
ENCODING 233
SWIDTH 480 0
DWIDTH 7 0
BBX 7 15 0 -3
BITMAP
00
00
0C
18
00
3C
66
66
7E
60
66
3C
00
00
00
ENDCHAR
STARTCHAR U+00EA
ENCODING 234
SWIDTH 480 0
DWIDTH 7 0
BBX 7 15 0 -3
BITMAP
00
00
18
3C
00
3C
66
66
7E
60
66
3C
00
00
00
ENDCHAR
STARTCHAR U+00EB
ENCODING 235
SWIDTH 480 0
DWIDTH 7 0
BBX 7 15 0 -3
BITMAP
00
00
66
66
00
3C
66
66
7E
60
66
3C
00
00
00
ENDCHAR
STARTCHAR U+00EC
ENCODING 236
SWIDTH 480 0
DWIDTH 7 0
BBX 7 15 0 -3
BITMAP
00
00
30
18
00
38
18
18
18
18
18
3C
00
00
00
ENDCHAR
STARTCHAR U+00ED
ENCODING 237
SWIDTH 480 0
DWIDTH 7 0
BBX 7 15 0 -3
BITMAP
00
00
0C
18
00
38
18
18
18
18
18
3C
00
00
00
ENDCHAR
STARTCHAR U+00EE
ENCODING 238
SWIDTH 480 0
DWIDTH 7 0
BBX 7 15 0 -3
BITMAP
00
00
18
3C
00
38
18
18
18
18
18
3C
00
00
00
ENDCHAR
STARTCHAR U+00EF
ENCODING 239
SWIDTH 480 0
DWIDTH 7 0
BBX 7 15 0 -3
BITMAP
00
00
00
3C
00
38
18
18
18
18
18
3C
00
00
00
ENDCHAR
STARTCHAR U+00F0
ENCODING 240
SWIDTH 480 0
DWIDTH 7 0
BBX 7 15 0 -3
BITMAP
00
00
3C
38
6C
1C
36
66
66
66
6C
38
00
00
00
ENDCHAR
STARTCHAR U+00F1
ENCODING 241
SWIDTH 480 0
DWIDTH 7 0
BBX 7 15 0 -3
BITMAP
00
00
3E
7C
00
7C
76
66
66
66
66
66
00
00
00
ENDCHAR
STARTCHAR U+00F2
ENCODING 242
SWIDTH 480 0
DWIDTH 7 0
BBX 7 15 0 -3
BITMAP
00
00
30
18
00
3C
66
66
66
66
66
3C
00
00
00
ENDCHAR
STARTCHAR U+00F3
ENCODING 243
SWIDTH 480 0
DWIDTH 7 0
BBX 7 15 0 -3
BITMAP
00
00
0C
18
00
3C
66
66
66
66
66
3C
00
00
00
ENDCHAR
STARTCHAR U+00F4
ENCODING 244
SWIDTH 480 0
DWIDTH 7 0
BBX 7 15 0 -3
BITMAP
00
00
18
3C
00
3C
66
66
66
66
66
3C
00
00
00
ENDCHAR
STARTCHAR U+00F5
ENCODING 245
SWIDTH 480 0
DWIDTH 7 0
BBX 7 15 0 -3
BITMAP
00
00
3E
7C
00
3C
66
66
66
66
66
3C
00
00
00
ENDCHAR
STARTCHAR U+00F6
ENCODING 246
SWIDTH 480 0
DWIDTH 7 0
BBX 7 15 0 -3
BITMAP
00
00
66
66
00
3C
66
66
66
66
66
3C
00
00
00
ENDCHAR
STARTCHAR U+00F7
ENCODING 247
SWIDTH 480 0
DWIDTH 7 0
BBX 7 15 0 -3
BITMAP
00
00
00
00
00
18
18
00
7E
00
18
18
00
00
00
ENDCHAR
STARTCHAR U+00F8
ENCODING 248
SWIDTH 480 0
DWIDTH 7 0
BBX 7 15 0 -3
BITMAP
00
00
00
00
00
3E
66
6E
7E
76
66
7C
00
00
00
ENDCHAR
STARTCHAR U+00F9
ENCODING 249
SWIDTH 480 0
DWIDTH 7 0
BBX 7 15 0 -3
BITMAP
00
00
30
18
00
66
66
66
66
66
6E
3E
00
00
00
ENDCHAR
STARTCHAR U+00FA
ENCODING 250
SWIDTH 480 0
DWIDTH 7 0
BBX 7 15 0 -3
BITMAP
00
00
0C
18
00
66
66
66
66
66
6E
3E
00
00
00
ENDCHAR
STARTCHAR U+00FB
ENCODING 251
SWIDTH 480 0
DWIDTH 7 0
BBX 7 15 0 -3
BITMAP
00
00
18
3C
00
66
66
66
66
66
6E
3E
00
00
00
ENDCHAR
STARTCHAR U+00FC
ENCODING 252
SWIDTH 480 0
DWIDTH 7 0
BBX 7 15 0 -3
BITMAP
00
00
66
66
00
66
66
66
66
66
66
3E
00
00
00
ENDCHAR
STARTCHAR U+00FD
ENCODING 253
SWIDTH 480 0
DWIDTH 7 0
BBX 7 15 0 -3
BITMAP
00
00
0C
18
00
66
66
66
66
3C
3C
18
18
18
70
ENDCHAR
STARTCHAR U+00FE
ENCODING 254
SWIDTH 480 0
DWIDTH 7 0
BBX 7 15 0 -3
BITMAP
00
00
00
00
60
60
7C
76
66
66
66
7C
60
60
60
ENDCHAR
STARTCHAR U+00FF
ENCODING 255
SWIDTH 480 0
DWIDTH 7 0
BBX 7 15 0 -3
BITMAP
00
00
66
66
00
66
66
66
66
3C
3C
18
18
18
70
ENDCHAR
STARTCHAR U+2018
ENCODING 8216
SWIDTH 480 0
DWIDTH 7 0
BBX 7 15 0 -3
BITMAP
00
00
10
20
20
30
30
00
00
00
00
00
00
00
00
ENDCHAR
STARTCHAR U+2019
ENCODING 8217
SWIDTH 480 0
DWIDTH 7 0
BBX 7 15 0 -3
BITMAP
00
00
30
30
10
10
20
00
00
00
00
00
00
00
00
ENDCHAR
STARTCHAR U+201A
ENCODING 8218
SWIDTH 480 0
DWIDTH 7 0
BBX 7 15 0 -3
BITMAP
00
00
00
00
00
00
00
00
00
30
30
10
10
20
00
ENDCHAR
STARTCHAR U+201C
ENCODING 8220
SWIDTH 480 0
DWIDTH 7 0
BBX 7 15 0 -3
BITMAP
00
00
24
48
48
6C
6C
00
00
00
00
00
00
00
00
ENDCHAR
STARTCHAR U+201D
ENCODING 8221
SWIDTH 480 0
DWIDTH 7 0
BBX 7 15 0 -3
BITMAP
00
00
6C
6C
24
24
48
00
00
00
00
00
00
00
00
ENDCHAR
STARTCHAR U+201E
ENCODING 8222
SWIDTH 480 0
DWIDTH 7 0
BBX 7 15 0 -3
BITMAP
00
00
00
00
00
00
00
00
00
6C
6C
24
24
48
00
ENDCHAR
STARTCHAR U+2026
ENCODING 8230
SWIDTH 480 0
DWIDTH 7 0
BBX 7 15 0 -3
BITMAP
00
00
00
00
00
00
00
00
00
00
B6
DA
00
00
00
ENDCHAR
ENDFONT
